<svg xmlns="http://www.w3.org/2000/svg" xmlns:xlink="http://www.w3.org/1999/xlink" width="26" height="26" viewBox="0 0 26 26"><defs><path id="o1uaa" d="M302 1757.08v17.87a3.05 3.05 0 0 1-3.05 3.05h-19.9a3.05 3.05 0 0 1-3.05-3.05v-17.87a3.05 3.05 0 0 1 3.05-3.05h1.22V1752h2.03v2.03h13.4V1752h2.03v2.03h1.22a3.05 3.05 0 0 1 3.05 3.05zm-2.03 4.47h-21.94v13.4c0 .56.46 1.02 1.02 1.02h19.9c.56 0 1.02-.46 1.02-1.02zm0-4.47c0-.56-.46-1.02-1.02-1.02h-1.22v2.03h-2.03v-2.03h-13.4v2.03h-2.03v-2.03h-1.22c-.56 0-1.02.46-1.02 1.02v2.44h21.94zm-20.11 6.6h2.03v2.03h-2.03zm4.06 0h2.03v2.03h-2.03zm4.06 0h2.04v2.03h-2.04zm4.07 0h2.03v2.03h-2.03zm4.06 0h2.03v2.03h-2.03zm-16.25 4.06h2.03v2.03h-2.03zm4.06 0h2.03v2.03h-2.03zm4.06 0h2.04v2.03h-2.04zm4.07 0h2.03v2.03h-2.03zm-12.2 4.06h2.04v2.04h-2.03zm4.07 0h2.03v2.04h-2.03zm4.06 0h2.04v2.04h-2.04zm4.07 0h2.03v2.04h-2.03zm4.06-4.06h2.03v2.03h-2.03z"/></defs><g><g transform="translate(-276 -1752)"><use fill="#fff" xlink:href="#o1uaa"/></g></g></svg>