<svg xmlns="http://www.w3.org/2000/svg" xmlns:xlink="http://www.w3.org/1999/xlink" width="20" height="20" viewBox="0 0 20 20"><defs><path id="ebo8a" d="M250.93 77.16c-.03.3-.3.52-.58.5h-.13c-.88 0-1.7.54-2.04 1.35-.36.86-.14 1.86.56 2.5.22.19.24.52.06.75a9.95 9.95 0 0 1-1.62 1.6.56.56 0 0 1-.75-.06 2.3 2.3 0 0 0-2.48-.57c-.85.35-1.4 1.21-1.37 2.14.01.29-.2.54-.5.57a9.95 9.95 0 0 1-2.24 0 .56.56 0 0 1-.5-.6c.06-.93-.48-1.8-1.35-2.16a2.3 2.3 0 0 0-2.5.56.56.56 0 0 1-.75.06c-.59-.47-1.12-1-1.58-1.6a.56.56 0 0 1 .06-.75c.68-.63.9-1.62.56-2.48a2.2 2.2 0 0 0-2.06-1.37c-.29 0-.63-.2-.66-.49-.08-.76-.08-1.52 0-2.27.04-.3.27-.5.59-.5.97 0 1.83-.52 2.17-1.35.36-.86.14-1.86-.56-2.5a.56.56 0 0 1-.06-.75 9.93 9.93 0 0 1 1.62-1.6.56.56 0 0 1 .75.06c.6.66 1.66.9 2.48.57.85-.35 1.4-1.21 1.37-2.14a.56.56 0 0 1 .5-.57c.74-.08 1.5-.08 2.24 0 .3.04.51.3.5.6-.06.93.48 1.8 1.35 2.16.82.35 1.9.1 2.49-.56.2-.22.53-.24.76-.06.58.47 1.11 1 1.58 1.6.18.23.16.56-.06.75-.68.63-.9 1.62-.56 2.48a2.22 2.22 0 0 0 2.07 1.37c.29 0 .62.2.65.49a10 10 0 0 1 0 2.27zm-6.58-1.14a3.34 3.34 0 1 0-6.68 0 3.34 3.34 0 0 0 6.68 0z"/></defs><g><g transform="translate(-231 -66)"><use fill="#59aabe" xlink:href="#ebo8a"/></g></g></svg>